<svg xmlns="http://www.w3.org/2000/svg" xmlns:xlink="http://www.w3.org/1999/xlink" viewBox="0 0 108.65 125.05"><defs><style>.cls-1{fill:url(#linear-gradient);}.cls-2{fill:url(#linear-gradient-2);}</style><linearGradient id="linear-gradient" x1="10.21" y1="-13.42" x2="83.82" y2="95.52" gradientUnits="userSpaceOnUse"><stop offset="0" stop-color="#20d3f7"/><stop offset="1" stop-color="#3232b8"/></linearGradient><linearGradient id="linear-gradient-2" x1="43.81" y1="117.24" x2="43.81" y2="34.65" xlink:href="#linear-gradient"/></defs><g id="Layer_2" data-name="Layer 2"><g id="OBJECTS"><path class="cls-1" d="M99,83.82a15.52,15.52,0,0,0-16,2.54,31.41,31.41,0,1,1,0-47.69A15.53,15.53,0,0,0,99,41.22h0a15.55,15.55,0,0,0,4.27-26.11,62.53,62.53,0,1,0,0,94.8A15.55,15.55,0,0,0,99,83.82Z"/><path class="cls-2" d="M87.61,83.61A15.35,15.35,0,0,0,83,86.36a31.41,31.41,0,1,1,0-47.69,15.21,15.21,0,0,0,3.52,2.27A46.14,46.14,0,0,0,0,63c0,1.87.1,3.73.28,5.56a46.14,46.14,0,0,0,87.32,15.1Z"/></g></g></svg>